<?xml version="1.0" encoding="UTF-8"?>
<svg id="Capa_1" xmlns="http://www.w3.org/2000/svg" version="1.1" viewBox="0 0 113.3858 56.6924">
  <!-- Generator: Adobe Illustrator 29.1.0, SVG Export Plug-In . SVG Version: 2.1.0 Build 142)  -->
  <path d="M34.4027,19.3498c.4809,0,.7615.2646.7615.6894,0,.457-.2806.7135-.7615.7135h-.6414v-1.4029h.6414ZM32.623,23.9913h1.1383v-2.2686h.5852l1.4911,2.2686h1.3628l-1.7636-2.4851c.5691-.2725.8978-.7776.8978-1.4509,0-1.0422-.7615-1.6755-1.9961-1.6755h-1.7155v5.6115Z" fill="#232422"/>
  <path d="M37.9058,23.9913h3.2708v-.9699h-2.1324v-1.4029h1.8117v-.97h-1.8117v-1.2987h2.1324v-.97h-3.2708v5.6115ZM40.0462,17.8988l1.0422-1.0822h-1.1704l-.9059,1.0822h1.0341Z" fill="#232422"/>
  <path d="M44.3992,19.3498c.4809,0,.7695.2646.7695.6894,0,.457-.2886.7135-.7695.7135h-.7616v-1.4029h.7616ZM42.4993,23.9913h1.1383v-2.2686h.7135c1.2345,0,1.988-.6333,1.988-1.6674,0-1.0422-.7535-1.6755-1.988-1.6755h-1.8518v5.6115Z" fill="#232422"/>
  <path d="M50.5879,21.891c0,.7536-.4329,1.1945-1.1304,1.1945-.7134,0-1.1383-.4409-1.1383-1.1945v-3.5112h-1.1383v3.415c0,1.4751.8657,2.3569,2.2686,2.3569,1.4109,0,2.2767-.8818,2.2767-2.3569v-3.415h-1.1383v3.5112Z" fill="#232422"/>
  <path d="M54.9167,21.5543c.5291,0,.8498.2566.8498.7215s-.3207.7456-.8498.7456h-.6413v-1.4671h.6413ZM54.7564,19.3498c.4329,0,.6814.2325.6814.6093,0,.4008-.2485.6172-.6814.6172h-.481v-1.2265h.481ZM53.1371,23.9913h1.7155c1.2907,0,2.0843-.6252,2.0843-1.6513,0-.5852-.3287-1.0662-.9219-1.3308.3848-.2645.5932-.6573.5932-1.1062,0-.946-.7054-1.5232-1.8758-1.5232h-1.5953v5.6115Z" fill="#232422"/>
  <polygon points="58.0993 23.9913 61.37 23.9913 61.37 22.9572 59.2376 22.9572 59.2376 18.3798 58.0993 18.3798 58.0993 23.9913" fill="#232422"/>
  <rect x="62.372" y="18.3798" width="1.1384" height="5.6115" fill="#232422"/>
  <path d="M67.5827,23.0855c-1.0582,0-1.8117-.8257-1.8117-1.8999s.7535-1.8999,1.8117-1.8999c1.0502,0,1.8037.8257,1.8037,1.8999s-.7535,1.8999-1.8037,1.8999ZM69.7872,23.847l-.3367-.3206c.6895-.5451,1.1063-1.4029,1.1063-2.3408,0-1.6033-1.2105-2.9661-2.9741-2.9661-1.7716,0-2.9821,1.3628-2.9821,2.9661s1.2105,2.9661,2.9821,2.9661c.2726,0,.5291-.0321.7696-.0962l.6654.5932c.5531.481,1.1303.7375,1.7556.7375.2485,0,.4088-.0321.5932-.1042v-.962c-.1203.0481-.2806.0641-.4008.0641-.3608,0-.7456-.1442-1.1785-.5371Z" fill="#232422"/>
  <path d="M74.9579,21.891c0,.7536-.4329,1.1945-1.1304,1.1945-.7134,0-1.1383-.4409-1.1383-1.1945v-3.5112h-1.1383v3.415c0,1.4751.8657,2.3569,2.2686,2.3569,1.4109,0,2.2767-.8818,2.2767-2.3569v-3.415h-1.1383v3.5112Z" fill="#232422"/>
  <polygon points="77.5071 23.9913 80.7778 23.9913 80.7778 23.0214 78.6454 23.0214 78.6454 21.6185 80.4571 21.6185 80.4571 20.6485 78.6454 20.6485 78.6454 19.3498 80.7778 19.3498 80.7778 18.3798 77.5071 18.3798 77.5071 23.9913" fill="#232422"/>
  <polygon points="32.623 32.104 33.7613 32.104 33.7613 29.7311 35.5731 29.7311 35.5731 28.7611 33.7613 28.7611 33.7613 27.4625 35.8937 27.4625 35.8937 26.4925 32.623 26.4925 32.623 32.104" fill="#232422"/>
  <path d="M38.6754,27.4625c.481,0,.7616.2645.7616.6894,0,.4569-.2806.7134-.7616.7134h-.6413v-1.4028h.6413ZM36.8958,32.104h1.1383v-2.2687h.5852l1.4911,2.2687h1.3628l-1.7637-2.4851c.5692-.2726.8979-.7776.8979-1.451,0-1.0421-.7616-1.6754-1.9961-1.6754h-1.7155v5.6115Z" fill="#232422"/>
  <path d="M43.814,29.675l.7695-2.1083.7696,2.1083h-1.5391ZM41.7136,32.104h1.2105l.5371-1.459h2.2446l.5371,1.459h1.2105l-2.1243-5.6115h-1.4911l-2.1244,5.6115Z" fill="#232422"/>
  <polygon points="48.3192 32.104 49.4575 32.104 49.4575 28.0717 51.9667 32.104 53.4257 32.104 53.4257 26.4925 52.2873 26.4925 52.2873 30.5087 49.7782 26.4925 48.3192 26.4925 48.3192 32.104" fill="#232422"/>
  <path d="M57.498,31.1981c-1.0581,0-1.8117-.8257-1.8117-1.8999s.7536-1.8999,1.8117-1.8999c.6414,0,1.1464.3127,1.467.7696l.8979-.6974c-.5131-.6814-1.3468-1.1384-2.3649-1.1384-1.7716,0-2.9821,1.3628-2.9821,2.9661,0,1.427.962,2.6615,2.421,2.918l-.7055,1.1784h1.0101l.6974-1.1624c.8177-.1042,1.4911-.521,1.924-1.1142l-.8979-.6895c-.3206.457-.8256.7696-1.467.7696Z" fill="#232422"/>
  <path d="M62.2037,29.675l.7696-2.1083.7695,2.1083h-1.5391ZM60.1034,32.104h1.2105l.5371-1.459h2.2446l.5371,1.459h1.2104l-2.1243-5.6115h-1.4911l-2.1243,5.6115Z" fill="#232422"/>
  <rect x="66.7089" y="26.4925" width="1.1384" height="5.6115" fill="#232422"/>
  <path d="M68.9135,31.3264c.497.5932,1.1383.9379,2.0842.9379,1.0261,0,1.8438-.6413,1.8598-1.6834,0-1.8999-2.5652-1.6675-2.5652-2.6695,0-.3287.2565-.5852.6493-.5852.4249,0,.7936.2725,1.1223.6974l.8337-.7455c-.473-.5692-1.1223-.946-1.964-.946-1.0662,0-1.7957.7376-1.7957,1.6274,0,1.8678,2.5653,1.6434,2.5653,2.6454,0,.4088-.2726.6493-.7215.6493-.4569,0-.9059-.2565-1.2426-.6894l-.8256.7616Z" fill="#232422"/>
  <polygon points="74.052 32.104 77.3227 32.104 77.3227 31.134 75.1903 31.134 75.1903 29.7311 77.002 29.7311 77.002 28.7611 75.1903 28.7611 75.1903 27.4625 77.3227 27.4625 77.3227 26.4925 74.052 26.4925 74.052 32.104" fill="#232422"/>
  <path d="M39.3301,13.671c.002-.0009.0038-.0022.0058-.0031.0207-.0097.0387-.0223.0554-.0367-.0023-.0005-.0045-.0011-.0065-.0018-.0185.0128-.0365.0268-.0547.0416" fill="#060606"/>
  <path d="M42.0826,12.7529c-.0063.0047-.0126.0095-.0187.014.0103-.0005.0187-.003.0187-.014" fill="#060606"/>
  <path d="M41.2135,13.7131c.0805-.0805.1619-.1671.2429-.2542h-.0018c.151-.1705.2988-.3333.4735-.4831.0533-.0475.1051-.0896.1546-.1235.0141-.0142.0141-.0425.0283-.0567-.0711.0283-.1136.0853-.1847.1136-.0141,0-.0283-.0142-.0141-.0283.0506-.0381.1012-.0761.1518-.1139-.0034,0-.0065.0003-.0099.0003-.0142,0-.0142-.0144-.0142-.0286-.1844-.0284-.3266.0994-.4541.213-.0286.0142-.0569-.0142-.0711-.0142-.213.0709-.3691.2556-.5822.3408v-.0285c-.085.0285-.1678.08-.2555.0994-.1278.0285-.2414.0142-.355.0142-.1718.0173-.3439.0551-.5162.092-.0049.0013-.0099.0024-.0146.0035-.0925.0255-.1795.0599-.2648.1067-.0031.0018-.0063.0038-.0096.0056-.007.0088-.014.0173-.0205.0245-.0304.0335-.0567.0643-.0974.085-.0873.0444-.1584.1217-.2355.1845-.0054.0045-.0137.0067-.0227.0072-.0761.0729-.1512.1471-.2286.2189-.0054.0049-.0274.0078-.0434.0051.0004-.0004.0009-.0006.0013-.0013.0028-.0045.0055-.009.0081-.0135.012-.02.0241-.04.0365-.0598.0137-.0223.0279-.0441.0421-.066.0193-.0294.0391-.0584.0605-.0863.0054-.0075.004-.014-.0007-.0187-.0043-.0047-.0119-.0076-.0196-.0074.0709-.0689.155-.1273.2382-.178v-.0022c-.0094.0032-.0231-.0043-.0159-.0144.009-.0126.0159-.0261.0245-.0387.0016-.0043.0031-.0083.0045-.0126-.0036-.0038-.0072-.0076-.0108-.0112-.0227.0148-.0473.029-.0666.0465-.034.0308-.0605.0932-.1122.0927-.0032,0-.0133-.0007-.0216-.0031-.0059-.0012-.0113-.0027-.0147-.005.0005-.0011.0012-.0022.0016-.0034.0009-.0013.0016-.0027.0023-.0038l.002-.0038c.0022-.0041.0045-.0081.0067-.0122.0023-.004.0045-.0081.0068-.0121.0018-.0034.0036-.0068.0054-.0099.0036-.0061.0067-.0122.0101-.018.0025-.0043.0049-.0085.0076-.0128.0059-.0106.0122-.0209.0183-.0313.0029-.0052.0056-.0101.0087-.0153.005-.0085.0099-.0171.0151-.0256.007-.0119-.0004-.0216-.0108-.0254.0263-.0342.0585-.0626.0972-.0849h-.0041c.0543-.0272.1087-.0605.1629-.0911l.0236-.0202c-.0812.0272-.1538.0639-.2258.1113,0,0-.0187.0079-.0241.0131,0,0-.0162.0061-.0353-.0131-.002-.0024-.0034-.0058-.0034-.0103.0142-.0283.0567-.0425.0853-.0709.0141,0,.0283,0,.0283.0142.4542-.3552,1.0788-.2699,1.6041-.4544.0427-.0283.0852-.0566.1277-.0852.0711-.0284.1278-.0994.2131-.142.1136-.0852.1986-.1846.2413-.3263,0-.0142-.0142-.0286-.0142-.0286-.1846.1988-.3974.3549-.6246.4685-.2981.1561-.6247.1278-.9371.1703.0142-.0283.0427-.0283.0711-.0283,0-.0425.0283-.0567.0569-.085h.0425c.0142,0,.0142-.0286.0283-.0286.0284,0,.0711-.0142.0569-.0142-.0427-.0567-.1277.0428-.1988,0,.0283-.0283.0142-.0708.0425-.0852h.0569c0-.0284.0284-.0567.0284-.0567.2128-.1278.4116-.2272.6105-.3408-.0428,0-.0711.0427-.1136.0144.0283,0,0-.0428.0283-.0428.1561-.0425.2839-.1277.4402-.1844-.0569,0-.0994.0425-.1563,0,.0283-.0144.0427-.0427.0852-.0427v-.0426c0-.0141.0142-.0141.0284-.0141-.0142,0-.0284-.0144-.0284-.0144.0142-.0284.0567-.0142.0853-.0425-.0142,0-.0428,0-.0428-.0142.0428-.0567.1136-.0709.1847-.085-.0142-.0286-.0569,0-.0569-.0286,0-.0142.0144-.0142.0286-.0142h-.0286c-.0283-.0142-.0142-.0425-.0142-.0567.0853-.0994.0853-.2272.1278-.3407-.0142,0-.0283,0-.0283-.0142-.142.1561-.3692.213-.5822.2697h-.0708c-.0711.0283-.1706.0283-.2414-.0142-.0569-.0283-.0853-.0711-.1419-.1136-.1136-.0711-.2272-.1277-.355-.1703-.355-.1136-.7241-.1705-1.093-.1561.1559-.0852.3284-.0924.4967-.1421.2413-.0709.4685-.1561.7241-.142-.0426-.0141-.0995,0-.142,0-.1988-.0141-.3974.0428-.6105.0853-.1419.0283-.2697.085-.4116.1136-.0853.0283-.1278.1136-.2272.0994v-.0427c.1419-.1703.3122-.3406.5394-.3548.2555-.0427.4969,0,.7524.0284.1847.0141.355.0567.5394.0994.0711,0,.0853.1134.1422.1275.085.0286.1703,0,.2553.0569,0-.0283-.0142-.0569,0-.0852.0569-.0567.128.0142.1847-.0142.1136-.0708-.0994-.1986-.1561-.298,0-.0142.0142-.0286.0142-.0286.1136.0994.1988.213.3407.2841.0709.0283.2412.0709.2128-.0142-.0708-.1561-.2128-.2841-.3264-.426v-.0567c-.0283,0-.0283-.0142-.0427-.0283v-.0569c-.0567-.0284-.0425-.0851-.0708-.1278-.0428-.0709-.0142-.1703-.0428-.2555-.0283-.0851-.0425-.1562-.0567-.2414-.0425-.2414-.0994-.4542-.1277-.6814-.0284-.2697.1561-.4827.2838-.724.0995-.1703.2131-.3406.3975-.4542.0427-.1705.1563-.3124.2699-.4544.1132-.1385.3017-.2229.4382-.2841.1982-.0884.3773-.1439.3773-.1439h-9.8073v7.5128h6.964c.2704-.1948.5403-.287.9175-.4731.1782-.0877.5858-.2748.7239-.413M39.0302,12.6962c-.0283,0-.085.0141-.0708-.0142.0141-.0711.1135-.0711.1702-.0994.0284-.0142.0711-.0425.0995-.0284.0283.0426.0708.0284.0994.0567-.0853.0853-.1989.0428-.2983.0853M36.8582,12.384s-.0142-.0142-.0142-.0286c.1845-.2414.3266-.4683.4542-.7241.1846-.0994.3378-.2441.4827-.3975.2413-.2553.4969-.4827.7952-.6246.1135-.0425.2555-.0284.3691.0141-.0428.0569-.1136.0428-.1705.0853-.0142,0-.0284,0-.0425-.0142.0141-.0142.0141-.0283.0141-.0425-.1419.1561-.3408.2272-.4543.4116-.0851.142-.142.3267-.3264.3692-.0569.0142.0141-.0425-.0142-.0284-.4402.2697-.7524.5961-1.0932.9797M38.0364,11.4469c-.0142.0285-.0299.0314-.0425.0566-.0142.0284-.0283.0428-.0567.0569-.0144,0-.0285,0-.0285-.0141.0141-.0567.0569-.1136.1135-.1278.0142,0,.0142.0142.0142.0284M38.6957,13.5739c-.0063.0155-.0207.029-.0348.0414.0177.0036.0301.0115.0186.022-.0328.0302-.0643.0605-.1075.0749-.0031.0012-.0117.0025-.0218.0032-.0176.0169-.0349.0335-.0531.0495-.0169.015-.0947.0042-.0709-.0169.036-.0319.0693-.0666.1049-.0992.02-.0182.0414-.036.0591-.0565.0099-.0114.018-.0225.0304-.0315.0117-.008.0868-.0148.0751.0131M38.4415,13.4567c-.0013.0007-.0024.0016-.0036.0022-.053.0376-.1061.0756-.1621.1082-.0608.0354-.1244.0621-.1872.092-.0004-.0011-.0011-.0024-.002-.0035-.0047-.0066-.0146-.0106-.0239-.0057-.0537.029-.0994.0675-.1428.1089-.0068.0063-.0133.0126-.0198.0191-.0004.0002-.0009.0007-.0011.0011-.0005.0003-.0009.0007-.0011.0012-.0068.0065-.0135.0132-.0203.0198l-.0025.0024c-.0004.0005-.0004.0009-.0006.0014-.0102.0101-.0198.0202-.0311.0333-.007.0083-.0094.0135-.0189.0198-.0087.0058-.0333.0056-.0308-.0106v-.0029c-.0083.0045-.0169.009-.0252.0128-.0076.0038-.0151.0081-.0223.0124-.0029-.0014-.0063-.0016-.0096-.0016-.0036.0002-.0072.0011-.0104.0036-.0173.0135-.0344.0279-.0513.0432-.0294.0268-.0576.0562-.0823.0875-.0004.0004-.0007.0009-.0011.0013-.0011.0014-.002.0027-.0029.0039-.0014.002-.003.0038-.0043.0056-.0014.002-.0029.0038-.0045.0058-.0005.0007-.0009.0012-.0014.0018-.0033.0048-.0063.0095-.0096.0142,0,.0002-.0003.0005-.0005.0007-.0025.0027-.0065.0047-.0117.0056-.0018-.0027-.0038-.0056-.0056-.0083l-.0041-.007c-.0042-.0074-.0083-.0148-.0121-.0227,0-.0002-.0002-.0007-.0005-.0009-.0011-.0023-.002-.0045-.0031-.007.0153-.0164.0301-.0337.0445-.051.0009-.0012.0018-.0025.0027-.0034.005-.0061.0102-.0124.0149-.0182.0081-.0102.016-.0203.0236-.0306.0029-.0036.0059-.0075.009-.0113.0153-.0202.0304-.04.0443-.0598.0002-.0007.0007-.0011.0009-.0016.002-.0029.0043-.0058.0063-.009.0068-.0099.0133-.02.0194-.0304.0054-.0094.0108-.0186.0155-.0283.0004-.0007.0009-.0016.0011-.0022.0005-.0009.0011-.0018.0016-.003.0007-.0018.0013-.0033.0022-.0051.005-.0108.0095-.0219.0135-.0331.0005-.0011.0009-.0025.0014-.0038.0011-.003.002-.0061.0031-.0093.0016-.0051.0032-.0103.0043-.0157.0004-.0011.0007-.0023.0009-.0034.0018-.007.0036-.0137.0049-.0209.0007-.0038-.0002-.0067-.0018-.0094.0153-.0268.0347-.0525.0563-.0768-.002.0014-.0043.0023-.0063.0036-.0205.0131-.034.0315-.0529.0455-.0155.0117-.0438-.0074-.0254-.0212.0124-.0092.0218-.0195.0322-.0292.0006-.0007.0006-.0016.0015-.0022.0234-.023.0457-.0527.0725-.0723.0162-.0117.0303-.0218.0436-.0333.002-.0015.0041-.0035.0061-.0056.0099-.013.0207-.0247.0317-.0357.0007-.0005.0011-.0012.0016-.0014.1358-.1311.3646-.1253.5439-.209.0708-.0283.1561.0142.2272,0,.0425,0,.085,0,.1275.0284-.1273.0695-.2452.148-.3615.2211M38.7322,12.469c-.0142-.0142.0425,0,.0566-.0284h-.1133c-.0142,0-.0142-.0141-.0142-.0283-.0711.0142-.1563.0425-.2274.0567-.0992.0283-.1845.0994-.2981.1278-.1561.0569-.2838.1846-.4541.2413-.0142,0-.0142-.0142-.0142-.0283.0142-.0425.0709-.0569.0992-.0995,0-.0141,0-.0283-.0142-.0283.1136-.1563.2697-.2414.4119-.3691v-.0425c.0425-.057.1134-.0853.1417-.1564.0142-.0425.0711-.0994.1422-.1277-.0144-.0142-.0428-.0142-.0428-.0426-.0566,0-.1135.0284-.1702-.0141.0265-.0266.0569-.0412.089-.0506-.0123-.0023-.0234-.0084-.0323-.0205-.0142-.0284.0276-.0601.071-.0709.0567-.0141.1278-.0141.1703-.0569-.0994-.0141-.213.0286-.3122-.0283.0709-.1847.1844-.3408.355-.4258.0141,0,.0425,0,.0425.0141,0,.0709-.0425.1278-.1136.142.1136.0283.2272.0283.3408.085-.0142.0286-.0428.0142-.057.0142.0711.0427.1564.0144.2272.0711-.0425.0427-.0852,0-.1277,0,.4402.1277.9085.2271,1.2776.511-.3122.1564-.6388.2272-.9794.2983-.0427,0-.071,0-.1136-.0142,0,.0142,0,.0425-.0141.0425-.0569,0-.0994,0-.1422.0284-.0567.0283-.1419.0425-.1844,0" fill="#4c4c4b"/>
  <path d="M53.3323,7.0864h-8.0815s.0153.0025.0767.0356c.0657.0351.1505.0805.2038.1084.1041.0546.2054.1228.2706.2272.0286.0425.0711.1277.0427.1847-.0283.0708-.0427.1844-.1136.2127-.085.0426-.1988.0426-.298.0284-.0569,0-.1136-.0142-.1705-.0284.213.0853.4119.1847.5538.3833.0142.0286.0708.0428.1278.0428.0141,0,.0141.0283.0141.0425-.0285.0283-.0569.0425-.0427.085h.0427c.0711-.0283.0567-.1703.1561-.1275.0711.0425.0995.1419.057.2128-.057.0569-.1136.0994-.1706.1419-.0141.0286-.0141.0711,0,.0997.0428.0567.057.1133.0711.17.0425.0995.0567.213.0995.3125.0566.213.1133.426.0992.6388,0,.1136-.0567.213-.0142.3266.0283.1134.0994.1986.1563.2981.0567.0852.1136.1419.1561.2272.0853.1419.2412.2838.1703.4543-.0425.0992-.1986.0851-.298.142-.0853.0708-.0142.1844.0283.2555.0711.1278-.0853.2128-.1847.2553.0284.0428.0853.0286.0994.0569.0142.0711.0853.1136.0428.1847-.0569.0853-.2272.1278-.1422.2555.0569.0992.02.2097-.0141.3123-.0426.1277-.1562.1844-.2556.213-.0852.0283-.1844.0283-.2697.0142-.0283-.0142-.0567-.0284-.085-.0284-.2416-.0286-.4827-.0994-.7241-.0994-.0711.0142-.1422.0283-.1989.0567-.0641.0472-.1212.0983-.1718.152-.0007.0007-.0011.0014-.0016.0018-.0106.0113-.0209.023-.031.0344-.0061.0072-.0122.0144-.0182.0216l-.0122.0149c-.0414.0517-.0787.1066-.1118.1635-.002.0038-.0043.0072-.0063.011-.0036.0066-.0072.0131-.011.0198-.0466.0862-.0817.1744-.1073.2605-.0965.3251-.0544.604.0133.6717.0189.0189.4685.1577.7819.2971.1469.0655.2497.1159.3351.1694h7.936v-7.5126Z" fill="#868686"/>
  <path d="M45.7314,9.8271c.0567.0142.1419.0142.1419.0425-.0283.1136-.1986.142-.2839.2558h-.0425c-.0427.0283-.0285.0992-.0711.0992-.0427-.0142-.0852,0-.1277.0144.0567.0567.1277.0992.213.085.0142,0,.0425.0284.0425.0569,0,0,.0142,0,.0283-.0144.0144,0,.0286,0,.0286.0144v.0567c-.0427.0567-.1136.0284-.1705.0425.1136.0286.2272.0286.3264,0,.0853-.0283,0-.1703.0569-.2411-.0283,0,0-.0428-.0283-.0428.0283-.0283.0567-.0708.0852-.0852.0284,0,.0709-.0142.0851-.0425,0-.0284-.0567-.0425-.0426-.0711.0853-.0567.1561-.1419.1278-.227-.0142-.0427-.1278-.0427-.1988-.0711-.0709-.0283-.1562,0-.2412.0142-.0711,0-.1421.0428-.213.0569-.0994.0284-.1847.0851-.2697.1417.0992-.0425.1986-.0566.3122-.085.0853,0,.1575-.0209.2414,0" fill="gray"/>
  <path d="M50.9214,47.667c.1525,0,.2846.1154.2144.4085l-.7095.1649c.1237-.33.33-.5734.4951-.5734M51.3132,48.8097h-.1403c-.1773.2106-.3671.3755-.557.3755-.1939,0-.2928-.1156-.2928-.3755,0-.1072.0123-.2143.033-.3135l1.1427-.3754c.2229-.528-.0454-.759-.3587-.759-.5406,0-1.1554.9034-1.1554,1.6956,0,.3547.1692.5486.4333.5486.3095,0,.6312-.3012.8952-.7963M51.0863,47.1513l.8046-.7509v-.0866h-.4332l-.4951.8375h.1237ZM48.6194,47.6794h.3794l-.6024,1.6461c-.0535.1402.0207.2805.1651.2805.3424,0,.8953-.3383,1.0892-.8003h-.1073c-.1527.1608-.4456.3754-.6973.4209l.5529-1.5472h.5653l.0702-.2353h-.5489l.2105-.594h-.2186l-.3921.594-.466.0662v.1691ZM48.1078,47.6009c.0452-.1525-.0578-.2391-.1363-.2391-.33,0-.7218.2969-.8786.7137h.1073c.1073-.1527.2888-.3219.4578-.3509l-.631,1.6421c-.0578.1527.0576.2393.1361.2393.3136,0,.6807-.3012.8374-.7137h-.1073c-.1073.1527-.2888.3219-.4579.3507l.6725-1.6421ZM48.2232,46.7758c.1487,0,.2724-.1196.2724-.2722,0-.1484-.1237-.2724-.2724-.2724-.1525,0-.2724.124-.2724.2724,0,.1526.1199.2722.2724.2722M44.5886,49.3008c-.0825.1856.0043.3052.1856.3052.1116,0,.1611-.029.2063-.1484l.4375-1.1594c.202-.2474.6188-.5115.7839-.5115.1195,0,.103.099.0245.2475l-.6723,1.2913c-.0662.1278.0204.2805.1651.2805.33,0,.7218-.2971.8786-.7137h-.1073c-.1073.1527-.2886.3219-.4578.3507l.5775-1.1675c.0742-.1486.1113-.2888.1113-.4004,0-.1896-.1071-.3133-.3052-.3133-.2846,0-.5734.3217-.916.7178v-.3053c0-.2188-.0699-.4125-.2679-.4125-.1239,0-.2436.1071-.3549.2598v.0414c.2145-.0126.3095.3093.1567.6476l-.4456.9902ZM44.5805,47.865c.0783-.2681.0371-.5032-.1691-.5032-.2434,0-.3053.1856-.5529.7178v-.3053c0-.2188-.07-.4125-.2682-.4125-.231,0-.4415.3588-.6024.7137h.1073c.1114-.161.2146-.2559.2972-.2559.099,0,.1525.1527,0,.491l-.4456.9902c-.0826.1856.004.3052.1856.3052.1113,0,.1608-.029.2062-.1484l.4373-1.1594c.124-.1525.2353-.2845.3754-.4332h.4292ZM42.0472,47.667c.1528,0,.2848.1154.2146.4085l-.7094.1649c.1237-.33.33-.5734.4948-.5734M42.4393,48.8097h-.1404c-.1774.2106-.3671.3755-.5569.3755-.1937,0-.2929-.1156-.2929-.3755,0-.1072.0124-.2143.0331-.3135l1.1427-.3754c.2227-.528-.0452-.759-.359-.759-.5403,0-1.1551.9034-1.1551,1.6956,0,.3547.1692.5486.4332.5486.3096,0,.6312-.3012.8953-.7963M39.7452,47.6794h.3797l-.6024,1.6461c-.0538.1402.0207.2805.1651.2805.3424,0,.8953-.3383,1.0889-.8003h-.107c-.1528.1608-.4456.3754-.6973.4209l.5529-1.5472h.565l.0702-.2353h-.5486l.2105-.594h-.2189l-.3918.594-.4663.0662v.1691ZM37.662,48.9625c0-.5075.5651-1.1965.8829-1.1965.07,0,.1361.0083.1937.0248l-.33.8788c-.1899.2308-.4825.5115-.6188.5115-.0785,0-.1278-.0661-.1278-.2186M39.3988,47.2669l-.1732-.0124-.1939.1896h-.0414c-.9405,0-1.7532,1.0564-1.7532,1.8236,0,.2146.1318.3383.3381.3383.2436,0,.4827-.3466.7508-.7177l-.0121.132c-.0331.3795.0823.5857.2805.5857.231,0,.4413-.359.6022-.7137h-.1073c-.1114.1608-.2144.2558-.297.2558-.0866,0-.1487-.1568,0-.4911l.6065-1.3901ZM37.3939,47.865c.0782-.2681.0371-.5032-.1692-.5032-.2436,0-.3055.1856-.5529.7178v-.3053c0-.2188-.0702-.4125-.2681-.4125-.231,0-.4414.3588-.6024.7137h.1073c.1113-.161.2146-.2559.2971-.2559.099,0,.1525.1527,0,.491l-.4456.9902c-.0825.1856.0041.3052.1856.3052.1113,0,.1608-.029.2063-.1484l.4373-1.1594c.1237-.1525.2352-.2845.3754-.4332h.4292ZM34.2337,49.5235l.0411-.1278c-.5486-.1032-.6188-.1032-.4001-.7016l.2229-.6145h.6064c.2722,0,.2762.1113.2351.4083h.1568l.363-.9941h-.1568c-.136.2351-.2433.4083-.5403.4083h-.5983l.3176-.8705c.0992-.2765.1568-.3341.5282-.3341h.264c.3838,0,.429.1031.429.4909h.1527l.1278-.6767h-2.2773l-.0412.128c.4414.0907.4828.1321.2765.7014l-.4951,1.353c-.2063.5653-.2929.6107-.8003.7016l-.0374.1278h1.6257Z" fill="#232422"/>
  <path d="M45.3974,42.5099c.1525,0,.2845.1157.2143.4085l-.7094.1649c.1237-.33.33-.5734.4951-.5734M45.7892,43.6529h-.1404c-.1772.2103-.3671.3754-.5567.3754-.1941,0-.2931-.1156-.2931-.3754,0-.1073.0124-.2146.0331-.3136l1.1427-.3754c.2229-.5282-.0452-.7592-.3588-.7592-.5405,0-1.1553.9034-1.1553,1.6956,0,.3547.1692.5486.4332.5486.3096,0,.6312-.3012.8953-.796M45.5622,41.9944l.8047-.7509v-.0866h-.4333l-.4951.8375h.1237ZM43.0953,42.5223h.3795l-.6024,1.6461c-.0535.1404.0207.2805.1651.2805.3424,0,.8953-.3383,1.0892-.8003h-.1073c-.1528.1611-.4456.3754-.6974.4209l.553-1.5472h.5652l.0702-.235h-.5488l.2105-.5941h-.2186l-.3921.5941-.4661.0659v.1691ZM42.5838,42.444c.0452-.1527-.0578-.2393-.1363-.2393-.33,0-.7219.2971-.8786.7137h.1073c.1072-.1527.2888-.3219.4579-.3506l-.6311,1.642c-.0579.1525.0575.2391.136.2391.3136,0,.6807-.3012.8375-.7137h-.1073c-.1073.1527-.2888.3219-.458.3509l.6726-1.6421ZM42.6992,41.619c.1487,0,.2724-.1197.2724-.2724,0-.1485-.1237-.2722-.2724-.2722-.1525,0-.2722.1237-.2722.2722,0,.1527.1197.2724.2722.2724M40.5044,44.0861l1.1511-3.016-.0372-.0452-.722.0823v.0868l.1403.1073c.128.099.0866.1937-.029.499l-.8993,2.3681c-.0659.128.0207.2805.1651.2805.33,0,.6807-.2969.8375-.7137h-.1073c-.1073.1527-.33.3219-.4992.3509M38.3178,43.8054c0-.5075.5653-1.1963.8831-1.1963.07,0,.1361.0081.1937.0246l-.33.8788c-.1899.231-.4825.5115-.6188.5115-.0783,0-.128-.0659-.128-.2186M40.0548,42.1098l-.1732-.0124-.1939.1899h-.0414c-.9405,0-1.7532,1.0561-1.7532,1.8233,0,.2146.132.3383.3383.3383.2434,0,.4827-.3464.7509-.7177l-.0126.132c-.0329.3795.0827.5857.2805.5857.2312,0,.4415-.3587.6026-.7137h-.1073c-.1116.1611-.2146.256-.2972.256-.0866,0-.1484-.157,0-.4911l.6065-1.3903ZM35.8551,44.8493c0-.2188.2103-.3549.5115-.4746.099.0495.2475.1033.4456.1692.3136.1032.4331.1444.4331.2393,0,.2022-.3424.3547-.8085.3547-.3921,0-.5817-.0823-.5817-.2886M36.709,43.5166c-.1361,0-.1899-.1154-.1899-.2475,0-.3673.1982-.9076.5075-.9076.1363,0,.1899.1156.1899.2476,0,.3672-.198.9075-.5075.9075M37.6043,44.6471c0-.2641-.2351-.359-.6189-.4744-.3299-.0992-.4786-.128-.4786-.2353,0-.0866.0702-.1896.2105-.2638.5406-.029.891-.5158.891-.9243,0-.0866-.0164-.1608-.0454-.227h.458l.0701-.235h-.7261c-.0866-.0538-.1898-.0826-.2928-.0826-.5737,0-.9448.5034-.9448.9117,0,.3095.1979.5034.4373.5486-.2682.1199-.4166.2601-.4166.4252,0,.0947.0328.1608.1113.2227-.6188.1815-.8622.3878-.8622.6806,0,.2848.3752.4045.8208.4045.7552,0,1.3864-.4085,1.3864-.7509M34.7205,42.8813c.2722,0,.2765.1114.2351.4083h.1568l.363-.994h-.1568c-.1361.235-.2434.4082-.5403.4082h-.5983l.3012-.8291c.099-.2764.1568-.33.5279-.33h.2641c.3837,0,.4292.103.4292.4868h.1527l.1278-.6766h-2.2773l-.0414.1277c.4415.0909.4827.1321.2764.7014l-.4948,1.3533c-.2065.5652-.2931.6104-.8004.7013l-.0373.128h2.5331l.4539-.718h-.1732c-.2888.2724-.6519.5322-1.1594.5322-.6725,0-.6105-.0288-.3878-.6435l.2394-.656h.6064ZM35.0505,41.1526l.8046-.5529v-.0866h-.487l-.4454.6395h.1278Z" fill="#232422"/>
  <path d="M45.129,37.353c.1528,0,.2848.1156.2146.4085l-.7096.1651c.1239-.3303.3302-.5736.495-.5736M45.5209,38.4957h-.1401c-.1775.2105-.3674.3756-.557.3756-.1939,0-.2929-.1156-.2929-.3756,0-.1071.0124-.2144.0329-.3134l1.1429-.3754c.2227-.5282-.0454-.7592-.359-.7592-.5405,0-1.1551.9034-1.1551,1.6956,0,.355.1692.5487.4333.5487.3092,0,.6311-.301.895-.7963M45.2942,36.8374l.8043-.7511v-.0864h-.4332l-.4949.8375h.1238ZM42.9302,37.3653h.301l-.6022,1.6462c-.0537.1403.0207.2805.1652.2805.3423,0,.8952-.3384,1.0889-.8004h-.1073c-.1525.1611-.4454.3754-.6971.4209l.5529-1.5472h.5651l.0701-.235h-.5486l.2103-.5941h-.2186l-.3919.5941-.3878.0659v.1691ZM42.6331,37.5511c.0785-.2683.0371-.5034-.1692-.5034-.2433,0-.3052.1858-.5526.7178v-.3052c0-.2187-.0702-.4126-.2684-.4126-.2308,0-.4413.359-.6022.7138h.1073c.1114-.1609.2144-.2558.2972-.2558.099,0,.1525.1525,0,.491l-.4456.99c-.0828.1858.004.3053.1856.3053.1113,0,.1608-.0288.2062-.1485l.4373-1.1594c.1237-.1525.2353-.2845.3754-.433h.429ZM40.1,37.353c.1528,0,.2848.1156.2146.4085l-.7097.1651c.124-.3303.3302-.5736.4951-.5736M40.4921,38.4957h-.1404c-.1774.2105-.3673.3756-.5569.3756-.1939,0-.2929-.1156-.2929-.3756,0-.1071.0124-.2144.0329-.3134l1.1429-.3754c.2227-.5282-.0455-.7592-.359-.7592-.5406,0-1.1551.9034-1.1551,1.6956,0,.355.1692.5487.4332.5487.3093,0,.6312-.301.8953-.7963M37.6909,38.9579c-.1116,0-.2724-.1032-.2724-.1939,0-.029.0495-.1568.1114-.3176l.1858-.491c.1979-.2351.4991-.4868.6683-.4868.103,0,.1815.0659.1815.2186,0,.4497-.4209,1.2707-.8746,1.2707M38.9904,37.5057c0-.3343-.1237-.458-.355-.458-.2886,0-.561.3053-.8331.6766l.6889-1.8112-.0371-.0452-.722.0823v.0869l.1401.107c.128.0992.0868.2022-.0288.4992l-.7425,1.9144c-.0538.1402-.1197.3053-.1197.3507,0,.198.2681.3836.5115.3836.561,0,1.4977-1.0107,1.4977-1.7863M36.7459,37.2871c.0457-.1528-.0576-.2394-.1361-.2394-.33,0-.7218.2972-.8786.7138h.1073c.1071-.1528.2886-.3217.4578-.3507l-.6312,1.6418c-.0578.1528.0578.2394.1363.2394.3136,0,.6807-.301.8375-.7136h-.1073c-.1073.1525-.2889.3217-.458.3507l.6723-1.642ZM36.8615,36.4617c.1485,0,.2725-.1194.2725-.2721,0-.1485-.124-.2724-.2725-.2724-.1527,0-.2721.1239-.2721.2724,0,.1527.1194.2721.2721.2721M35.199,36.1979h-1.5017l-.0412.1278c.4414.0908.4828.132.2765.7013l-.4868,1.3533c-.2065.5652-.2931.6107-.8006.7013l-.0371.128h2.2857l.4951-.8831h-.1735c-.2805.3095-.6105.6973-1.1179.6973-.3838,0-.429-.0659-.2227-.6435l.4867-1.3533c.2023-.5653.2929-.6105.8004-.7013l.0371-.1278Z" fill="#232422"/>
</svg>